<svg xmlns="http://www.w3.org/2000/svg" viewBox="0 0 81 69" width="81" height="69">
	<defs>
		<clipPath clipPathUnits="userSpaceOnUse" id="cp1">
			<path d="M0 0L81 0L81 69L0 69Z"/>
		</clipPath>
	</defs>
	<style>
		tspan { white-space:pre }
		.shp0 { fill: none;stroke: #fff;stroke-linecap:round;stroke-width: 6 } 
		.shp1 { fill: none;stroke: #fff;stroke-linecap:round;stroke-linejoin:round;stroke-width: 6 } 
		.shp2 { fill: none;stroke: #fff;stroke-width: 6 } 
	</style>
	<g  clip-path="url(#cp1)">
		<path id="Path 1" class="shp0" d="M70.59 27.29L50 27.29" />
		<path id="Path 2" class="shp1" d="M3 2.57L17.33 2.57L36.33 40.71L67.67 40.71L77.67 13.17L41 13.17" />
		<path id="Path 3" class="shp2" d="M47.17 58.92C47.17 62.83 44 66 40.08 66C36.17 66 33 62.83 33 58.92C33 55 36.17 51.83 40.08 51.83C44 51.83 47.17 55 47.17 58.92ZM73.17 58.92C73.17 62.83 70 66 66.08 66C62.17 66 59 62.83 59 58.92C59 55 62.17 51.83 66.08 51.83C70 51.83 73.17 55 73.17 58.92Z" />
	</g>
</svg>