<svg xmlns="http://www.w3.org/2000/svg" viewBox="0 0 79 34" width="79" height="34">
	<defs>
		<clipPath clipPathUnits="userSpaceOnUse" id="cp1">
			<path d="M0 0L79 0L79 34L0 34Z" />
		</clipPath>
	</defs>
	<style>
		tspan { white-space:pre }
		.shp0 { fill: none;stroke: #5b5f5c;stroke-width: 4 } 
		.shp1 { fill: none;stroke: #5b5f5c;stroke-width: 2 } 
		.shp2 { fill: none;stroke: #5b5f5c;stroke-linecap:round;stroke-width: 4 } 
	</style>
	<g id="Page 1" clip-path="url(#cp1)">
		<path id="Path 1" class="shp0" d="M58.49 25.94L24.95 25.94M11.75 25.94C11.75 25.94 1.9 25.65 2 20.33C2.05 17.39 2.05 14.42 2.03 12.35C2.02 10.83 3.25 9.6 4.77 9.6L8.8 9.6C8.8 9.6 21.4 2.11 34.89 2.51C43.18 3.26 44.11 4.01 52.28 9.2C55.2 11.06 62.97 12.87 67.86 13.4C73.86 14.05 78.28 18.6 77.29 24.55C77.26 24.69 77.13 25.81 77.1 25.94L70.7 25.94M5.56 19.61L3.59 19.61L3.59 14.24L6.99 14.24C8.08 14.24 8.96 15.12 8.96 16.21C8.96 18.08 7.43 19.61 5.56 19.61ZM24.33 25.94C24.33 29.29 21.62 32 18.27 32C14.93 32 12.22 29.29 12.22 25.94C12.22 22.6 14.93 19.89 18.27 19.89C21.62 19.89 24.33 22.6 24.33 25.94Z" />
		<path id="Path 2" class="shp1" d="M19.9 25.8C19.9 26.69 19.17 27.42 18.27 27.42C17.38 27.42 16.65 26.69 16.65 25.8C16.65 24.9 17.38 24.17 18.27 24.17C19.17 24.17 19.9 24.9 19.9 25.8Z" />
		<path id="Path 3" class="shp0" d="M69.98 25.94C69.98 29.29 67.27 32 63.93 32C60.58 32 57.87 29.29 57.87 25.94C57.87 22.6 60.58 19.89 63.93 19.89C67.27 19.89 69.98 22.6 69.98 25.94Z" />
		<path id="Path 4" class="shp1" d="M65.55 25.8C65.55 26.69 64.82 27.42 63.93 27.42C63.03 27.42 62.3 26.69 62.3 25.8C62.3 24.9 63.03 24.17 63.93 24.17C64.82 24.17 65.55 24.9 65.55 25.8Z" />
		<path id="Path 5" class="shp2" d="M14.26 6.92C14.26 6.92 16.81 13.14 21.14 13.14L65.53 13.14M19.9 19.03L22.72 4.01M38.88 25.18L38.88 12.42L35.63 3.26" />
		<path id="Path 6" class="shp0" d="M75.52 18.37C75.31 19.39 74.31 20.05 73.29 19.85C72.27 19.64 71.61 18.65 71.82 17.62C72.02 16.6 73.02 15.94 74.04 16.15" />
	</g>
</svg>