<svg xmlns="http://www.w3.org/2000/svg" viewBox="0 0 49 49" width="49" height="49">
	<defs>
		<clipPath clipPathUnits="userSpaceOnUse" id="cp1">
			<path d="M0 0L49 0L49 49L0 49Z" />
		</clipPath>
	</defs>
	<style>
		tspan { white-space:pre }
		.shp0 { fill: none;stroke: #5b5f5c;stroke-width: 4 } 
		.shp1 { fill: #5b5f5c } 
		.shp2 { fill: none;stroke: #5b5f5c;stroke-width: 2 } 
	</style>
	<g id="Page 1" clip-path="url(#cp1)">
		<path id="Path 1" class="shp0" d="M46.5 24.75C46.5 37.04 36.54 47 24.25 47C11.96 47 2 37.04 2 24.75C2 12.46 11.96 2.5 24.25 2.5C36.54 2.5 46.5 12.46 46.5 24.75ZM40.93 24.75C40.93 33.96 33.46 41.43 24.25 41.43C15.04 41.43 7.57 33.96 7.57 24.75C7.57 15.54 15.04 8.07 24.25 8.07C33.46 8.07 40.93 15.54 40.93 24.75ZM30.57 24.75C30.57 28.24 27.74 31.07 24.25 31.07C20.76 31.07 17.93 28.24 17.93 24.75C17.93 21.26 20.76 18.43 24.25 18.43C27.74 18.43 30.57 21.26 30.57 24.75Z" />
		<path id="Path 2" class="shp1" d="M25.54 24.75C25.54 25.46 24.96 26.04 24.25 26.04C23.54 26.04 22.96 25.46 22.96 24.75C22.96 24.04 23.54 23.46 24.25 23.46C24.96 23.46 25.54 24.04 25.54 24.75Z" />
		<path id="Path 3" class="shp2" d="M17.93 26.04L3.95 31.5M30.93 26.04L44.91 31.5M24.06 47L24.25 31.07M10.94 6.7L20.5 19.85M36.99 6.7L27.43 19.85" />
	</g>
</svg>